<svg xmlns="http://www.w3.org/2000/svg" enable-background="new 0 0 218.833 237.333" viewBox="0 0 218.833 237.333" id="businessman">
  <circle cx="77.5" cy="63.667" r="22.5" transform="rotate(-78.405 77.498 63.666)" fill="#595bd4" class="color000000 svgShape"></circle>
  <rect width="59" height="7.5" y="177.167" fill="#595bd4" class="color000000 svgShape"></rect>
  <path d="M104.989 119.838l-8.25-10.468-2.094 1.651 7.28 9.238c1.007-.114 2.019-.247 3.039-.418C104.972 119.84 104.98 119.84 104.989 119.838zM116.928 139.296l2.094-1.651-2.876-3.649c-.374.882-.868 1.705-1.465 2.449L116.928 139.296z" fill="#595bd4" class="color000000 svgShape"></path>
  <path d="M55.182,96.459c-1.701-4.063-6.37-5.987-10.44-4.3c-4.082,1.69-6.021,6.37-4.33,10.452
		c0.188,0.452,4.704,11.177,15.204,20.785c8.173,7.479,21.372,15.529,40.315,15.529c3.788,0,7.807-0.322,12.059-1.035
		c4.357-0.73,7.298-4.855,6.567-9.213s-4.857-7.295-9.212-6.567C69.17,128.177,55.765,97.827,55.182,96.459z" fill="#595bd4" class="color000000 svgShape"></path>
  <polygon points="102 139.917 102 140.962 102 142.417 126.5 142.417 126.5 139.917 109.446 139.917" fill="#595bd4" class="color000000 svgShape"></polygon>
  <path d="M140.613,92.705L125.333,129.5l25.102-31.775C156,99.835,162.029,101,168.333,101c27.89,0,50.5-22.61,50.5-50.5
		S196.224,0,168.333,0s-50.5,22.61-50.5,50.5C117.833,68.15,126.895,83.677,140.613,92.705z M167,9.333
		c23.84,0,43.167,19.326,43.167,43.167c0,23.84-19.326,43.167-43.167,43.167c-23.84,0-43.167-19.326-43.167-43.167
		C123.833,28.66,143.16,9.333,167,9.333z" fill="#595bd4" class="color000000 svgShape"></path>
  <path d="M196.167,37.667H135.5V69h60.667V37.667z M193.166,66h-49V40.667h49V66z" fill="#595bd4" class="color000000 svgShape"></path>
  <rect width="19.875" height="2.25" x="147.083" y="43.5" fill="#595bd4" class="color000000 svgShape"></rect>
  <rect width="3.75" height="2.25" x="186.708" y="43.5" fill="#595bd4" class="color000000 svgShape"></rect>
  <rect width="3.75" height="2.25" x="181.021" y="43.5" fill="#595bd4" class="color000000 svgShape"></rect>
  <rect width="43.833" height="1.5" x="146.75" y="57.375" fill="#595bd4" class="color000000 svgShape"></rect>
  <rect width="2" height="2" x="146.917" y="61.417" fill="#595bd4" class="color000000 svgShape"></rect>
  <rect width="2" height="2" x="150.25" y="61.417" fill="#595bd4" class="color000000 svgShape"></rect>
  <rect width="2" height="2" x="153.583" y="61.417" fill="#595bd4" class="color000000 svgShape"></rect>
  <rect width="2" height="2" x="159.667" y="61.417" fill="#595bd4" class="color000000 svgShape"></rect>
  <rect width="2" height="2" x="163" y="61.417" fill="#595bd4" class="color000000 svgShape"></rect>
  <rect width="2" height="2" x="166.333" y="61.417" fill="#595bd4" class="color000000 svgShape"></rect>
  <rect width="2" height="2" x="169.667" y="61.417" fill="#595bd4" class="color000000 svgShape"></rect>
  <rect width="2" height="2" x="173" y="61.417" fill="#595bd4" class="color000000 svgShape"></rect>
  <rect width="2" height="2" x="178.333" y="61.417" fill="#595bd4" class="color000000 svgShape"></rect>
  <rect width="2" height="2" x="181.694" y="61.417" fill="#595bd4" class="color000000 svgShape"></rect>
  <rect width="2" height="2" x="185.056" y="61.417" fill="#595bd4" class="color000000 svgShape"></rect>
  <rect width="2" height="2" x="188.417" y="61.417" fill="#595bd4" class="color000000 svgShape"></rect>
  <path d="M198.833,237.333V234h3v-81.167h6.333v-7.5H70.417v1.54l-9.85-0.707c1.162-1.408,2.306-2.841,3.42-4.312
		c0.424-2.484,0.781-5.466,1.065-8.724c-2.942-1.693-5.551-3.512-7.816-5.324c-0.909,3.931-1.984,7.824-3.267,11.654
		c0.404,2.072,0.753,4.176,1.048,6.309l-7.233-0.519c1.542-6.847,3.869-13.673,6.363-20.082c-0.027-0.025-0.057-0.05-0.084-0.074
		c-10.862-9.939-15.58-21.129-15.776-21.601c-1.053-2.542-1.053-5.342,0-7.884c1.054-2.542,3.033-4.521,5.575-5.574
		c1.259-0.521,2.584-0.786,3.938-0.786c4.165,0,7.896,2.482,9.504,6.323c0.341,0.799,7.045,16.021,23.597,22.33
		c-9.952-7.304-14.734-18.627-16.71-24.805c-0.013-0.053-0.025-0.111-0.038-0.164c-0.225-1.649-0.65-3.211-1.261-4.643
		c-0.475-1.8-1.534-3.305-2.934-4.353c-0.824-0.787-1.756-1.458-2.815-1.966c-7.935-3.8-20.989-1.747-28.865,11.584
		c-10.721,18.393-14.794,30.964-16.727,53.245c-0.171,16.4,10.306,20.239,19.307,21.966c2.274,0.436,4.24,0.752,5.943,0.76
		l33.814,2.427l-17.114,47.205c-2.353,6.49,1.001,13.659,7.491,16.012c1.407,0.51,2.846,0.752,4.26,0.752
		c5.112,0,9.909-3.159,11.753-8.243l22.75-62.75c1.335-3.683,0.866-7.779-1.267-11.066c-0.233-0.359-0.49-0.698-0.756-1.028h7.437
		V234h2.333v3.333h10.333V234H188.5v3.333H198.833z" fill="#595bd4" class="color000000 svgShape"></path>
</svg>
